<svg width="90" height="67" viewBox="0 0 90 67" fill="none" xmlns="http://www.w3.org/2000/svg">
<path fill-rule="evenodd" clip-rule="evenodd" d="M30.8163 0.5H35.1583V22.0625H39.5004V11.2812H43.8425V22.0625H48.1846V30.6875H79.6647C85.0603 30.6875 89.4344 35.0317 89.4344 40.3906C89.4344 45.3851 85.635 49.4982 80.7502 50.0345V63.0312H89.4344V66.9621H0.421669V63.0312H11.2769V58.3438C5.05316 56.8836 0.421669 51.3306 0.421669 44.7031C0.421669 36.9624 6.73962 30.6875 14.5334 30.6875H13.4479L11.2769 24.2188V22.0625H22.1321V30.6875H26.4742V22.0625H30.8163V0.5ZM79.6647 45.7812C76.6671 45.7812 74.2371 43.3678 74.2371 40.3906C74.2371 37.4135 76.6671 35 79.6647 35C82.6623 35 85.0923 37.4135 85.0923 40.3906C85.0923 43.3678 82.6623 45.7812 79.6647 45.7812ZM14.5334 52.25C10.3368 52.25 6.9348 48.8712 6.9348 44.7031C6.9348 40.5351 10.3368 37.1562 14.5334 37.1562C18.7301 37.1562 22.1321 40.5351 22.1321 44.7031C22.1321 48.8712 18.7301 52.25 14.5334 52.25ZM17.7143 61.8994L75.9286 51.9619V61.8994H17.7143Z" fill="currentColor"/>
</svg>
