<svg width="24" height="24" viewBox="0 0 24 24" fill="none" xmlns="http://www.w3.org/2000/svg">
  <path d="M15.974 19.7046L23.7416 15.981L18.4854 14.4042L23.2234 10.1332L17.5066 10.7906L18.2295 4.2856L14.2215 8.16232L10.8051 1L9.0308 8.8192L4.89128 5.20552L6.90632 12.0201L2 10.9874L5.636 15.2366L2.74496 17.3829L7.43192 19.7046H9.87128L8.09288 18.8234L9.18968 18.009L7.81016 16.397L9.67208 16.7889L8.90696 14.2026L10.4778 15.5742L11.1512 12.6074L12.4474 15.3246L13.9683 13.8537L13.694 16.3221L15.8636 16.0727L14.0655 17.6934L16.0599 18.2918L13.1125 19.7046H15.974Z" fill="currentColor"/>
</svg>
