<svg width="38" height="38" viewBox="0 0 38 38" fill="none" xmlns="http://www.w3.org/2000/svg">
<path d="M26.5115 22.4076C26.3063 22.5498 26.0957 22.6614 25.8815 22.7298C25.1705 22.9548 24.2939 22.7478 23.5073 22.4238C22.9457 22.1916 22.3571 21.891 21.7397 21.5112C22.0619 20.7246 22.3643 19.8264 22.6217 18.8328C23.0213 17.2902 23.2121 15.9312 23.2517 14.7378C23.2769 13.9998 23.2409 13.3248 23.1599 12.711C23.0483 11.8668 22.7891 11.0082 22.2383 10.5024C22.0637 10.3458 21.8513 10.2144 21.6137 10.1064C22.7387 9.984 23.7377 9.975 24.6197 10.0398C25.5467 10.119 26.4899 10.3476 27.0407 10.8876C27.5915 11.4276 27.8345 12.369 27.9317 13.2924C28.0217 14.1744 28.0289 15.1734 27.9245 16.3038C27.8183 17.418 27.6023 18.6564 27.2477 20.0298C27.0263 20.8794 26.7725 21.6912 26.5133 22.4076H26.5115ZM12.9269 21.7092C12.9053 21.4608 12.9143 21.2214 12.9629 21.0018C13.1231 20.2728 13.7405 19.6194 14.4155 19.0974C14.8979 18.7284 15.4505 18.3684 16.0895 18.0228C16.6097 18.696 17.2361 19.4052 17.9687 20.1252C19.1045 21.243 20.1863 22.0872 21.1997 22.7172C21.8261 23.1078 22.4273 23.4138 22.9997 23.6514C23.7863 23.9754 24.6593 24.1824 25.3739 23.9574C25.5971 23.8836 25.8167 23.7666 26.0291 23.6154C25.5719 24.6504 25.0805 25.5216 24.5837 26.2524C24.0509 27.0156 23.3831 27.7194 22.6397 27.9246C21.8963 28.1316 20.9603 27.8724 20.1125 27.4944C19.3043 27.1326 18.4349 26.6376 17.5079 25.9824C16.5971 25.3344 15.6305 24.528 14.6189 23.5326C13.9925 22.917 13.4165 22.2906 12.9269 21.7092ZM20.3033 10.2918C20.5301 10.398 20.7317 10.5258 20.8973 10.677C21.4481 11.181 21.7055 12.0432 21.8207 12.8874C21.8999 13.4886 21.9341 14.1492 21.9143 14.8746C21.0701 14.988 20.1431 15.1752 19.1531 15.4506C17.6177 15.8754 16.3451 16.3902 15.2921 16.9536C14.6405 17.301 14.0735 17.6682 13.5839 18.0462C12.9089 18.5646 12.2933 19.218 12.1313 19.9488C12.0827 20.1792 12.0737 20.4276 12.1007 20.6868C11.4329 19.7742 10.9235 18.912 10.5401 18.1164C10.1441 17.2704 9.87052 16.3398 10.0631 15.5946C10.2557 14.8476 10.9487 14.1654 11.6993 13.6218C12.4175 13.1016 13.2797 12.5958 14.3111 12.1224C15.3281 11.658 16.5107 11.2242 17.8769 10.8462C18.7229 10.6122 19.5545 10.425 20.3033 10.2936V10.2918Z" fill="white"/>
</svg>
