<svg width="24" height="24" viewBox="0 0 24 24" fill="none" xmlns="http://www.w3.org/2000/svg">
<path d="M15.9566 7.57221C15.0914 6.53023 13.7603 6.00024 11.9999 6.00024C10.2395 6.00024 8.90851 6.53023 8.04334 7.57221C6.34305 9.62017 7.22325 12.8641 7.26189 13.0001C7.37321 13.4296 7.83714 13.6937 8.29817 13.59C8.75437 13.4874 9.03764 13.0625 8.93427 12.6361C8.93427 12.6121 8.43191 10.1942 9.57832 8.88218L9.64058 8.81418V12.7821L9.21121 21.1619C9.1876 21.593 9.53528 21.9638 9.99695 21.9999H10.0678C10.5053 22.0027 10.8751 21.6987 10.9265 21.2939L11.8518 14.0001H12.1459L13.0734 21.2939C13.1248 21.6987 13.4946 22.0027 13.9321 21.9999H14.0051C14.4668 21.9638 14.8144 21.593 14.7908 21.1619L14.3615 12.7821V8.81618L14.4194 8.88018C15.5787 10.2002 15.0635 12.6101 15.0635 12.6401C14.9568 13.0709 15.2451 13.5007 15.7075 13.6001C16.1699 13.6995 16.6313 13.4309 16.738 13.0001C16.7766 12.8641 17.6568 9.62017 15.9566 7.57221Z" fill="currentColor"/>
<path d="M12 5.60017C13.0671 5.60017 13.9322 4.7943 13.9322 3.80021C13.9322 2.80611 13.0671 2.00024 12 2.00024C10.9329 2.00024 10.0679 2.80611 10.0679 3.80021C10.0679 4.7943 10.9329 5.60017 12 5.60017Z" fill="currentColor"/>
</svg>
