<svg width="24" height="24" viewBox="0 0 24 24" fill="none" xmlns="http://www.w3.org/2000/svg">
  <path d="M18.7302 7.71869C18.6971 7.60047 18.6142 7.54981 18.5149 7.51603C18.4155 7.49914 18.2995 7.51603 18.2167 7.60047L16.6431 9.22179L15.3014 8.7658L14.8873 7.49914L16.5106 5.86093C16.5934 5.77649 16.61 5.67515 16.5934 5.55693C16.5769 5.4556 16.5106 5.37116 16.4112 5.32049C15.848 5.08405 15.3511 4.9996 14.8873 4.9996C13.7775 4.9996 12.734 5.42182 11.9555 6.21559C11.1769 7.00937 10.7297 8.05647 10.7297 9.17113C10.7297 9.54268 10.7794 9.91423 10.8788 10.2689L5.54515 15.724C4.81633 16.4671 4.81633 17.7 5.54515 18.4431C5.92613 18.8315 6.40648 19.0004 6.88684 19.0004C7.3672 19.0004 7.84756 18.8146 8.22854 18.4431L13.4628 13.1062C13.91 13.2751 14.3904 13.3595 14.8707 13.3595C14.8707 13.3595 14.8707 13.3595 14.8873 13.3595C15.9805 13.3595 17.0406 12.9373 17.8192 12.1435C18.929 10.9782 19.3099 9.23868 18.7302 7.71869ZM7.54941 17.6324C7.185 18.0039 6.62182 18.0039 6.29054 17.6324C5.92613 17.2608 5.92613 16.6866 6.29054 16.3488C6.65495 16.0111 7.21813 15.9773 7.54941 16.3488C7.88069 16.7035 7.89726 17.2946 7.54941 17.6324Z" fill="currentColor"/>
</svg>
