<svg width="13" height="15" viewBox="0 0 13 15" fill="none" xmlns="http://www.w3.org/2000/svg">
  <path fill-rule="evenodd" clip-rule="evenodd" d="M12 4.5H1V10.5H12V4.5ZM0 3.5V11.5H6.5H13V3.5H0Z" fill="currentColor"/>
  <path d="M4 12.5C4 13.0523 3.55228 13.5 3 13.5C2.44772 13.5 2 13.0523 2 12.5C2 11.9477 2.44772 11.5 3 11.5C3.55228 11.5 4 11.9477 4 12.5Z" fill="currentColor"/>
  <path d="M11 12.5C11 13.0523 10.5523 13.5 10 13.5C9.44772 13.5 9 13.0523 9 12.5C9 11.9477 9.44772 11.5 10 11.5C10.5523 11.5 11 11.9477 11 12.5Z" fill="currentColor"/>
</svg>
