<svg width="58" height="58" viewBox="0 0 58 58" fill="none" xmlns="http://www.w3.org/2000/svg">
<path d="M53.2008 39.9847C52.5396 40.443 51.861 40.8026 51.1709 41.023C48.88 41.7481 46.0556 41.081 43.5211 40.0369C41.7116 39.2886 39.8151 38.3199 37.8258 37.096C38.864 34.5611 39.8383 31.6665 40.6677 28.4646C41.9552 23.4934 42.57 19.1139 42.6976 15.268C42.7788 12.8898 42.6628 10.7145 42.4018 8.73647C42.0422 6.01596 41.2071 3.24904 39.4324 1.61905C38.8698 1.11439 38.1854 0.690939 37.4199 0.342898C41.0447 -0.0515474 44.2635 -0.0805508 47.1053 0.128273C50.0921 0.383503 53.1312 1.12019 54.9059 2.86039C56.6806 4.60059 57.4635 7.63435 57.7767 10.6101C58.0667 13.4524 58.0899 16.6718 57.7535 20.3146C57.4113 23.9052 56.7154 27.8961 55.5728 32.322C54.8595 35.0599 54.0417 37.676 53.2066 39.9847H53.2008ZM9.43064 37.734C9.36105 36.9336 9.39005 36.1621 9.54664 35.4544C10.0628 33.1051 12.0521 30.9995 14.227 29.3173C15.7813 28.1281 17.5618 26.968 19.6207 25.8543C21.2968 28.0237 23.3151 30.3092 25.6755 32.6295C29.3351 36.2317 32.8207 38.9522 36.0859 40.9824C38.1042 42.2412 40.0413 43.2273 41.8856 43.993C44.4201 45.0371 47.2329 45.7042 49.5354 44.9791C50.2545 44.7413 50.9621 44.3642 51.6465 43.877C50.1733 47.2123 48.59 50.0199 46.9893 52.3749C45.2726 54.8344 43.1209 57.1025 40.7257 57.7638C38.3304 58.4308 35.3146 57.5956 32.5829 56.3774C29.9789 55.2115 27.1776 53.6163 24.1908 51.5048C21.2562 49.4166 18.1418 46.8179 14.8823 43.6101C12.8641 41.6263 11.0082 39.6077 9.43064 37.734ZM33.1977 0.940368C33.9285 1.28261 34.578 1.69446 35.1116 2.18171C36.8863 3.8059 37.7156 6.58442 38.0868 9.30494C38.342 11.2424 38.4522 13.3712 38.3884 15.7089C35.6684 16.0743 32.6815 16.6776 29.4917 17.5651C24.5446 18.9341 20.4442 20.5931 17.0514 22.4087C14.9519 23.5282 13.125 24.7115 11.5475 25.9297C9.37265 27.6003 7.38916 29.7059 6.86719 32.061C6.7106 32.8035 6.6816 33.604 6.7686 34.4393C4.61692 31.4983 2.97561 28.7198 1.74028 26.1559C0.464351 23.4296 -0.417199 20.4306 0.203366 18.0292C0.823931 15.6219 3.0568 13.4234 5.47527 11.6716C7.78934 9.99522 10.5674 8.36523 13.8906 6.83965C17.1674 5.34308 20.9778 3.94512 25.3797 2.72698C28.1056 1.97289 30.785 1.36962 33.1977 0.946168V0.940368Z" fill="white"/>
</svg>
