<svg width="91" height="28" viewBox="0 0 91 28" fill="none" xmlns="http://www.w3.org/2000/svg">
<path d="M29.7276 18.2663C29.7276 17.4633 30.3027 16.5559 31.3109 16.5559C32.3732 16.5559 32.8428 17.4281 32.8955 18.2663H29.7276ZM35.4545 19.2254C35.4545 16.5031 33.7835 14.7236 31.3814 14.7236C28.7533 14.7236 27.2742 16.8518 27.2742 19.3298C27.2742 21.6494 28.5625 23.882 31.6953 23.882C32.7562 23.882 33.9403 23.6391 35.1584 22.8702L34.6009 21.2831C33.6102 21.7551 32.9647 21.9112 32.1122 21.9112C30.947 21.9112 29.8332 21.1787 29.7804 19.992H35.4545V19.2255V19.2254ZM12.4626 18.2663C12.4626 17.4633 13.0377 16.5559 14.0458 16.5559C15.1094 16.5559 15.5778 17.4281 15.6306 18.2663H12.4626ZM18.1895 19.2254C18.1895 16.5031 16.5184 14.7236 14.1164 14.7236C11.4883 14.7236 10.0092 16.8518 10.0092 19.3298C10.0092 21.6494 11.2975 23.882 14.4303 23.882C15.4913 23.882 16.674 23.6391 17.8934 22.8702L17.3359 21.2831C16.344 21.7551 15.6997 21.9112 14.8472 21.9112C13.6807 21.9112 12.567 21.1787 12.5143 19.992H18.1896V19.2255L18.1895 19.2254ZM22.5442 22.037H21.517V19.8735H22.4223C23.6228 19.8735 24.267 20.153 24.267 20.9383C24.267 21.7753 23.4145 22.037 22.5442 22.037ZM21.5699 16.5761H22.597C23.6229 16.5761 24.007 16.8907 24.007 17.432C24.007 18.1116 23.3806 18.3205 22.336 18.3205H21.5701V16.5761H21.5699ZM24.9124 18.9108V18.8404C25.7299 18.6667 26.4091 18.1255 26.4091 16.9739C26.4091 15.5995 25.2577 15.0986 24.1265 14.9464C23.7799 14.8997 23.0203 14.8985 22.5972 14.8985H19.0148V23.7084H22.0234C22.3561 23.7084 22.8521 23.7072 23.2386 23.6958C24.8209 23.6204 26.7745 23.054 26.7745 21.0038C26.7745 19.7478 26.0952 19.1197 24.9124 18.9108ZM80.5372 21.9703H79.6673V19.511H80.5036C81.3899 19.511 82.3657 19.6507 82.3657 20.6966C82.3657 21.7261 81.5294 21.9703 80.5374 21.9703H80.5372ZM80.9553 17.7592H79.6671V14.5146L77.1609 15.1879V23.7083H80.364C82.6958 23.7083 84.8717 23.0789 84.8717 20.655C84.8717 18.5973 83.1139 17.7591 80.9553 17.7591V17.7592ZM64.6847 21.5273C64.445 21.7123 63.944 21.935 63.2785 21.935C62.4258 21.935 61.9463 21.5084 61.9463 20.8427C61.9463 20.1744 62.4636 19.8043 63.5372 19.7667L64.6847 19.7301V21.5273ZM63.5736 14.7236C62.3895 14.7236 61.2431 14.9073 60.0403 15.6876L60.7999 17.208C61.3901 16.8745 62.1497 16.6152 63.0386 16.6152C63.9076 16.6152 64.6847 17.0003 64.6847 17.9265V18.0763L63.1655 18.1341C60.948 18.2085 59.4501 19.1725 59.4501 21.0264C59.4501 22.7708 60.7057 23.882 62.3707 23.882C63.5007 23.882 64.2765 23.4567 64.8493 22.9368L65.2386 23.7083H67.1999V17.9868C67.1999 15.6685 65.9053 14.7235 63.5736 14.7235V14.7236ZM39.7579 22.0686C39.3046 22.0686 38.9568 21.9112 38.6779 21.72V17.5503C38.9744 17.0972 39.7579 16.5561 40.4183 16.5561C41.4278 16.5561 42.0193 17.2017 42.0193 19.0165C42.0193 20.5167 41.463 22.0685 39.7579 22.0685V22.0686ZM40.9231 14.7236C39.9487 14.7236 39.2002 15.1956 38.5563 15.7014L38.2776 14.8985H36.1717V28.0001L38.6781 27.2324V23.5159C39.1314 23.7601 39.7228 23.8822 40.3668 23.8822C42.9598 23.8822 44.5255 21.6671 44.5255 19.0505C44.5255 16.259 42.9422 14.7236 40.9231 14.7236ZM69.3406 15.9281C69.3406 18.9977 69.2188 20.6031 68.6623 21.3355C68.3833 21.7021 67.9488 21.9468 67.4956 22.0157L68.192 23.8825C68.7664 23.8652 69.6544 23.6211 70.2634 23.0105C71.0641 22.2253 71.3249 21.2313 71.4467 20.1842C71.5512 19.2947 71.6211 18.248 71.6211 17.3232V16.8872H73.5808V23.7083H76.0875V14.8985H69.3406V15.9283V15.9281ZM57.2205 16.8872V23.7083H54.714V16.8872H52.2777V14.8985H59.9707L59.4269 16.8872H57.2205ZM49.3773 23.8826C46.5577 23.8826 45.1133 21.8068 45.1133 19.3297C45.1133 16.5559 47.0277 14.724 49.5862 14.724C50.7176 14.724 51.3094 14.9508 51.779 15.2299V17.2192C51.1524 16.765 50.6472 16.6079 49.9517 16.6079C48.5072 16.6079 47.5777 17.6724 47.5777 19.2077C47.5777 20.5855 48.2979 21.9293 49.917 21.9293C50.3688 21.9293 50.9675 21.7334 51.6116 21.4019L52.2142 23.0452C51.4829 23.5341 50.265 23.8827 49.3771 23.8827L49.3773 23.8826ZM6.5107 23.8826C2.69865 23.8826 0.62793 21.1267 0.62793 17.6724C0.62793 14.183 3.06477 11.322 7.0675 11.322C8.1294 11.322 9.05161 11.4618 9.85215 11.8805V14.1312C8.79011 13.5033 7.93788 13.3803 7.1548 13.3803C4.43971 13.3803 3.43829 15.3873 3.43829 17.4979C3.43829 19.8531 4.70078 21.7196 6.91049 21.7196C7.88578 21.7196 8.67082 21.4486 9.61036 20.9426L10.2873 22.7663C8.87812 23.6561 7.67639 23.8826 6.5107 23.8826Z" fill="white"/>
<path d="M85.0029 0.203704C85.1609 0.278051 85.3017 0.366678 85.4173 0.473366C85.8009 0.825215 85.9815 1.4281 86.0613 2.01825C86.1166 2.43913 86.1409 2.90033 86.1265 3.40717C85.5383 3.48697 84.8911 3.6176 84.2009 3.80942C83.1297 4.10652 82.2417 4.46607 81.5076 4.85965C81.0535 5.10285 80.658 5.35949 80.3158 5.62341C79.8452 5.98604 79.4161 6.4429 79.3027 6.95366C79.2691 7.11411 79.2631 7.28829 79.281 7.47016C78.815 6.83185 78.4602 6.2298 78.1919 5.67297C77.9163 5.08366 77.7249 4.43303 77.8596 3.91107C77.9939 3.3884 78.4774 2.91223 79.0012 2.53112C79.5024 2.16793 80.1039 1.81412 80.8234 1.48313C81.5329 1.15788 82.3572 0.855178 83.3111 0.590416L83.3107 0.589716C83.9014 0.426323 84.4807 0.296252 85.0032 0.203424L85.0029 0.203704ZM79.8568 8.1873C79.8421 8.01312 79.8483 7.84665 79.8825 7.69278C79.9947 7.1837 80.4252 6.72572 80.8952 6.36127C81.2312 6.10281 81.6177 5.85121 82.0627 5.61025C82.4259 6.08111 82.8622 6.57731 83.3731 7.08065C84.1655 7.86191 84.92 8.45304 85.6273 8.89338C86.0644 9.16612 86.484 9.3809 86.8832 9.54611C87.4317 9.77335 88.0411 9.91742 88.5392 9.76047C88.6945 9.70922 88.8482 9.62732 88.9964 9.52077C88.6778 10.2445 88.335 10.8535 87.9881 11.3649C87.6167 11.8987 87.1504 12.3902 86.632 12.5344C86.1132 12.6793 85.4601 12.4974 84.8691 12.2335C84.3046 11.9801 83.6982 11.6347 83.0524 11.1757C82.4167 10.7223 81.7429 10.1584 81.0372 9.46252L81.0367 9.46322C80.6002 9.03227 80.1982 8.59445 79.8568 8.1873ZM89.333 8.67496C89.1898 8.77479 89.043 8.85263 88.8929 8.89996C88.3968 9.05719 87.7859 8.91242 87.236 8.6863C86.8448 8.52403 86.4341 8.31443 86.0036 8.04841C86.2288 7.49788 86.4393 6.87091 86.6188 6.17575C86.8976 5.09724 87.031 4.14685 87.0579 3.31266C87.075 2.79686 87.051 2.32516 86.9941 1.89616C86.916 1.30643 86.736 0.705505 86.3511 0.351697C86.2293 0.242348 86.0818 0.14994 85.9157 0.0746139C86.7003 -0.0106531 87.3978 -0.0177937 88.0131 0.02771C88.66 0.0831546 89.3178 0.242348 89.7015 0.620239C90.0859 0.998129 90.2555 1.65604 90.323 2.30122C90.3863 2.91783 90.391 3.61676 90.3175 4.40685C90.2436 5.18545 90.0932 6.05212 89.845 7.01274H89.8455C89.6915 7.60709 89.5143 8.17498 89.3332 8.67496H89.333Z" fill="white"/>
</svg>
