<svg width="10" height="10" viewBox="0 0 10 10" xmlns="http://www.w3.org/2000/svg">
<path d="M7.50781 6.80469L5.70312 5L7.50781 3.19531L6.80469 2.49219L5 4.29688L3.19531 2.49219L2.49219 3.19531L4.29688 5L2.49219 6.80469L3.19531 7.50781L5 5.70312L6.80469 7.50781L7.50781 6.80469ZM1.46094 1.48438C2.44531 0.5 3.625 0.0078125 5 0.0078125C6.375 0.0078125 7.54688 0.5 8.51562 1.48438C9.5 2.45312 9.99219 3.625 9.99219 5C9.99219 6.375 9.5 7.55469 8.51562 8.53906C7.54688 9.50781 6.375 9.99219 5 9.99219C3.625 9.99219 2.44531 9.50781 1.46094 8.53906C0.492188 7.55469 0.0078125 6.375 0.0078125 5C0.0078125 3.625 0.492188 2.45312 1.46094 1.48438Z" fill="current"/>
</svg>
