<svg width="13" height="14" viewBox="0 0 13 14" fill="none" xmlns="http://www.w3.org/2000/svg">
<path d="M0.532593 2.21875C0.391968 2.05469 0.333374 1.87891 0.356812 1.69141C0.380249 1.50391 0.46228 1.33984 0.602905 1.19922C0.74353 1.05859 0.919312 0.988281 1.13025 0.988281H11.5365C11.7474 0.988281 11.9232 1.05859 12.0638 1.19922C12.2045 1.33984 12.2865 1.50391 12.3099 1.69141C12.3334 1.87891 12.2748 2.05469 12.1342 2.21875C11.8295 2.59375 11.4896 3.02734 11.1146 3.51953C10.7396 4.01172 10.3529 4.50391 9.95447 4.99609C9.57947 5.48828 9.22791 5.94531 8.89978 6.36719C8.59509 6.78906 8.33728 7.12891 8.12634 7.38672C7.93884 7.62109 7.84509 7.73828 7.84509 7.73828V12.2383C7.84509 12.4492 7.76306 12.6367 7.599 12.8008C7.45837 12.9414 7.28259 13.0117 7.07166 13.0117H5.59509C5.38416 13.0117 5.19666 12.9414 5.03259 12.8008C4.89197 12.6367 4.82166 12.4492 4.82166 12.2383V7.73828C4.82166 7.73828 4.71619 7.62109 4.50525 7.38672C4.31775 7.12891 4.05994 6.78906 3.73181 6.36719C3.42712 5.94531 3.07556 5.48828 2.67712 4.99609C2.30212 4.50391 1.92712 4.01172 1.55212 3.51953C1.17712 3.02734 0.83728 2.59375 0.532593 2.21875Z" fill="#1976D2"/>
</svg>
