<svg width="12" height="13" viewBox="0 0 12 13" fill="none" xmlns="http://www.w3.org/2000/svg">
    <path fill-rule="evenodd" clip-rule="evenodd" d="M1.27785 1C1.50217 1.283 1.74151 1.5915 1.99577 1.92521L3.11189 3.39013C3.51125 3.88379 3.86771 4.34687 4.18021 4.7789C4.48908 5.17619 4.74017 5.50659 4.93111 5.76765L4.98791 5.83075L4.98895 5.83191L5.01907 5.86538L5.02004 5.86646L5.02101 5.86753L5.04882 5.89843L5.0497 5.89942L5.05059 5.9004L5.07608 5.92873L5.0769 5.92963L5.07771 5.93053L5.10014 5.95546L5.10088 5.95628L5.10161 5.9571L5.10235 5.95791L5.10308 5.95872L5.11305 5.9698L5.12188 5.97961L5.1232 5.98108L5.12452 5.98254L5.13344 5.99246L5.14189 6.00184L5.14306 6.00314L5.14422 6.00443L5.14537 6.00571L5.14986 6.01071L5.15206 6.01314L5.15314 6.01434L5.15527 6.01671L5.15942 6.02133L5.16044 6.02245L5.16144 6.02357L5.16244 6.02468L5.16632 6.02899L5.1682 6.03108L5.16913 6.03211L5.17095 6.03414L5.17449 6.03806L5.17535 6.03902L5.1762 6.03996L5.17704 6.0409L5.1803 6.04452L5.18187 6.04627L5.18265 6.04713L5.18416 6.04881L5.18708 6.05206L5.18778 6.05284L5.18848 6.05361L5.18916 6.05437L5.19084 6.05623L5.19181 6.05731L5.19276 6.05837L5.19369 6.0594L5.1946 6.06041L5.19549 6.0614L5.19635 6.06236L5.1972 6.0633L5.19802 6.06421L5.19882 6.0651L5.1996 6.06597L5.20036 6.06681L5.20109 6.06762L5.2018 6.06842L5.2025 6.06919L5.20317 6.06993L5.20402 6.07088L5.20485 6.0718L5.20563 6.07267L5.20637 6.07349L5.20708 6.07428L5.2079 6.07519L5.20867 6.07605L5.20937 6.07683L5.21014 6.07768L5.21082 6.07844L5.21151 6.0792L5.21221 6.07998L5.21289 6.08073L5.46987 6.36626V11.0234H6.4933V6.39922L6.71244 6.12531L7.4933 6.75V11.25C7.4933 11.4609 7.41127 11.6484 7.24721 11.8125C7.10659 11.9531 6.9308 12.0234 6.71987 12.0234H5.2433C5.03237 12.0234 4.84487 11.9531 4.6808 11.8125C4.54018 11.6484 4.46987 11.4609 4.46987 11.25V6.75L4.15346 6.39844C3.96596 6.14062 3.70815 5.80078 3.38002 5.37891C3.07533 4.95703 2.72377 4.5 2.32533 4.00781L1.20033 2.53125C0.825335 2.03906 0.485491 1.60547 0.180804 1.23047C0.0401786 1.06641 -0.0184152 0.890625 0.00502232 0.703125C0.0284598 0.515625 0.110491 0.351562 0.251116 0.210938C0.391741 0.0703125 0.567522 0 0.77846 0H11.1847C11.3956 0 11.5714 0.0703125 11.7121 0.210938C11.8527 0.351562 11.9347 0.515625 11.9581 0.703125C11.9816 0.890625 11.923 1.06641 11.7824 1.23047C11.4777 1.60547 11.1378 2.03906 10.7628 2.53125C10.3878 3.02344 10.0011 3.51562 9.60268 4.00781C9.22768 4.5 8.87612 4.95703 8.54799 5.37891C8.2433 5.80078 7.98549 6.14062 7.77455 6.39844L7.4933 6.75L6.71244 6.12531L6.71311 6.12447L6.71375 6.12366L6.71442 6.12283L6.71512 6.12195L6.7158 6.1211L6.71643 6.12031L6.71711 6.11946L6.71784 6.11854L6.71847 6.11776L6.71913 6.11693L6.71983 6.11607L6.72056 6.11515L6.72132 6.1142L6.72212 6.1132L6.72295 6.11216L6.7236 6.11135L6.72426 6.11052L6.72495 6.10966L6.72565 6.10878L6.72638 6.10788L6.72712 6.10695L6.72788 6.10599L6.72867 6.10502L6.72947 6.10401L6.73113 6.10194L6.73287 6.09976L6.73468 6.0975L6.73625 6.09553L6.73755 6.09391L6.73821 6.09309L6.73956 6.0914L6.74164 6.08879L6.74308 6.087L6.74381 6.08609L6.74529 6.08423L6.74758 6.08137L6.74915 6.07941L6.74995 6.07841L6.75157 6.07638L6.75407 6.07326L6.75578 6.07112L6.75665 6.07004L6.75841 6.06784L6.76111 6.06446L6.76296 6.06215L6.76389 6.06098L6.76579 6.05861L6.7687 6.05498L6.77068 6.0525L6.77169 6.05124L6.77372 6.0487L6.77683 6.04481L6.77895 6.04216L6.78003 6.04081L6.7822 6.0381L6.78552 6.03395L6.78778 6.03113L6.79476 6.0224L6.79715 6.01941L6.80517 6.00939L6.80771 6.00621L7.00055 5.76516C7.1938 5.52897 7.43865 5.20694 7.73731 4.79342L7.74772 4.779L7.75864 4.76497C8.08444 4.34608 8.43396 3.89171 8.80725 3.40177L8.81617 3.39006L8.82543 3.37861C9.21784 2.89388 9.59849 2.40941 9.9674 1.92521C10.2217 1.5915 10.461 1.283 10.6853 1H1.27785Z" fill="#A1B1B8"/>
</svg>